<svg width="442" height="358" viewBox="0 0 442 358" fill="none" xmlns="http://www.w3.org/2000/svg">
<g clip-path="url(#clip0)">
<path opacity="0.1" d="M53.0052 41.7371C57.0425 17.6482 77.8926 0.00170898 102.317 0.00170898H392C419.614 0.00170898 442 22.3875 442 50.0017V308.002C442 335.616 419.614 358.002 392 358.002H59.0772C28.1619 358.002 4.65495 330.227 9.76502 299.737L53.0052 41.7371Z" fill="#2D9CDB"/>
<ellipse cx="382.39" cy="306.032" rx="30.9248" ry="18.2737" transform="rotate(20.7184 382.39 306.032)" stroke="white" stroke-width="1.5"/>
<path d="M108.441 247.712C47.9072 259.919 33.2829 195.795 74.6734 121.691C168.67 -18.8767 317.122 22.8654 339.761 50.6612C362.401 78.457 344.207 111.798 256.968 126.395C169.729 140.991 184.109 232.454 108.441 247.712Z" stroke="white" stroke-width="1.5"/>
</g>
<defs>
<clipPath id="clip0">
<rect width="442" height="358" fill="white"/>
</clipPath>
</defs>
</svg>
